{
	"asset":{
		"generator":"Khronos glTF Blender I/O v3.6.27",
		"version":"2.0"
	},
	"scene":0,
	"scenes":[
		{
			"name":"Scene",
			"nodes":[
				0
			]
		}
	],
	"nodes":[
		{
			"mesh":0,
			"name":"bodyPart02",
			"rotation":[
				0,
				0,
				0.7071068286895752,
				0.7071068286895752
			],
			"translation":[
				-0.30852776765823364,
				-0.26965054869651794,
				2.2629427909851074
			]
		}
	],
	"materials":[
		{
			"doubleSided":true,
			"name":"Material",
			"pbrMetallicRoughness":{
				"baseColorFactor":[
					0.800000011920929,
					0.800000011920929,
					0.800000011920929,
					1
				],
				"metallicFactor":0,
				"roughnessFactor":0.5
			}
		},
		{
			"doubleSided":true,
			"name":"Material.002",
			"pbrMetallicRoughness":{
				"baseColorTexture":{
					"index":0
				},
				"metallicFactor":0,
				"roughnessFactor":0.5
			}
		}
	],
	"meshes":[
		{
			"name":"feather.002",
			"primitives":[
				{
					"attributes":{
						"COLOR_0":0,
						"POSITION":1,
						"NORMAL":2,
						"TEXCOORD_0":3
					},
					"indices":4,
					"material":0
				},
				{
					"attributes":{
						"COLOR_0":5,
						"POSITION":6,
						"NORMAL":7,
						"TEXCOORD_0":8
					},
					"indices":9,
					"material":1
				}
			]
		}
	],
	"textures":[
		{
			"sampler":0,
			"source":0
		}
	],
	"images":[
		{
			"bufferView":10,
			"mimeType":"image/png",
			"name":"Paint_Base Color"
		}
	],
	"accessors":[
		{
			"bufferView":0,
			"componentType":5126,
			"count":32367,
			"type":"VEC4"
		},
		{
			"bufferView":1,
			"componentType":5126,
			"count":32367,
			"max":[
				0.524461567401886,
				0.17628371715545654,
				0.4949217140674591
			],
			"min":[
				-0.5083242654800415,
				-0.7653598189353943,
				-0.41639062762260437
			],
			"type":"VEC3"
		},
		{
			"bufferView":2,
			"componentType":5126,
			"count":32367,
			"type":"VEC3"
		},
		{
			"bufferView":3,
			"componentType":5126,
			"count":32367,
			"type":"VEC2"
		},
		{
			"bufferView":4,
			"componentType":5123,
			"count":47520,
			"type":"SCALAR"
		},
		{
			"bufferView":5,
			"componentType":5126,
			"count":10157,
			"type":"VEC4"
		},
		{
			"bufferView":6,
			"componentType":5126,
			"count":10157,
			"max":[
				0.42616453766822815,
				0.4722716808319092,
				0.4179683029651642
			],
			"min":[
				-0.40666893124580383,
				-0.15927380323410034,
				-0.4786071479320526
			],
			"type":"VEC3"
		},
		{
			"bufferView":7,
			"componentType":5126,
			"count":10157,
			"type":"VEC3"
		},
		{
			"bufferView":8,
			"componentType":5126,
			"count":10157,
			"type":"VEC2"
		},
		{
			"bufferView":9,
			"componentType":5123,
			"count":52533,
			"type":"SCALAR"
		}
	],
	"bufferViews":[
		{
			"buffer":0,
			"byteLength":517872,
			"byteOffset":0,
			"target":34962
		},
		{
			"buffer":0,
			"byteLength":388404,
			"byteOffset":517872,
			"target":34962
		},
		{
			"buffer":0,
			"byteLength":388404,
			"byteOffset":906276,
			"target":34962
		},
		{
			"buffer":0,
			"byteLength":258936,
			"byteOffset":1294680,
			"target":34962
		},
		{
			"buffer":0,
			"byteLength":95040,
			"byteOffset":1553616,
			"target":34963
		},
		{
			"buffer":0,
			"byteLength":162512,
			"byteOffset":1648656,
			"target":34962
		},
		{
			"buffer":0,
			"byteLength":121884,
			"byteOffset":1811168,
			"target":34962
		},
		{
			"buffer":0,
			"byteLength":121884,
			"byteOffset":1933052,
			"target":34962
		},
		{
			"buffer":0,
			"byteLength":81256,
			"byteOffset":2054936,
			"target":34962
		},
		{
			"buffer":0,
			"byteLength":105066,
			"byteOffset":2136192,
			"target":34963
		},
		{
			"buffer":0,
			"byteLength":769175,
			"byteOffset":2241260
		}
	],
	"samplers":[
		{
			"magFilter":9729,
			"minFilter":9987
		}
	],
	"buffers":[
		{
			"byteLength":3010436,
			"uri":"data:application/octet-stream;base64,"
		}
	]
}
