{
	"asset":{
		"generator":"Khronos glTF Blender I/O v3.6.27",
		"version":"2.0"
	},
	"scene":0,
	"scenes":[
		{
			"name":"Scene",
			"nodes":[
				0
			]
		}
	],
	"nodes":[
		{
			"mesh":0,
			"name":"bodyPart02"
		}
	],
	"materials":[
		{
			"doubleSided":true,
			"name":"Material",
			"pbrMetallicRoughness":{
				"baseColorFactor":[
					0.800000011920929,
					0.800000011920929,
					0.800000011920929,
					1
				],
				"metallicFactor":0,
				"roughnessFactor":0.5
			}
		},
		{
			"doubleSided":true,
			"name":"Material.002",
			"pbrMetallicRoughness":{
				"baseColorTexture":{
					"index":0
				},
				"metallicFactor":0,
				"roughnessFactor":0.5
			}
		}
	],
	"meshes":[
		{
			"name":"feather.002",
			"primitives":[
				{
					"attributes":{
						"COLOR_0":0,
						"POSITION":1,
						"NORMAL":2,
						"TEXCOORD_0":3
					},
					"indices":4,
					"material":0
				},
				{
					"attributes":{
						"COLOR_0":5,
						"POSITION":6,
						"NORMAL":7,
						"TEXCOORD_0":8
					},
					"indices":9,
					"material":1
				}
			]
		}
	],
	"textures":[
		{
			"sampler":0,
			"source":0
		}
	],
	"images":[
		{
			"bufferView":10,
			"mimeType":"image/png",
			"name":"Paint_Base Color"
		}
	],
	"accessors":[
		{
			"bufferView":0,
			"componentType":5126,
			"count":32360,
			"type":"VEC4"
		},
		{
			"bufferView":1,
			"componentType":5126,
			"count":32360,
			"max":[
				0.5267804861068726,
				0.4855763912200928,
				1.2372756004333496
			],
			"min":[
				-0.5060052871704102,
				-0.4257361888885498,
				0.29563212394714355
			],
			"type":"VEC3"
		},
		{
			"bufferView":2,
			"componentType":5126,
			"count":32360,
			"type":"VEC3"
		},
		{
			"bufferView":3,
			"componentType":5126,
			"count":32360,
			"type":"VEC2"
		},
		{
			"bufferView":4,
			"componentType":5123,
			"count":47520,
			"type":"SCALAR"
		},
		{
			"bufferView":5,
			"componentType":5126,
			"count":10157,
			"type":"VEC4"
		},
		{
			"bufferView":6,
			"componentType":5126,
			"count":10157,
			"max":[
				0.4251251816749573,
				0.547792911529541,
				0.6311896443367004
			],
			"min":[
				-0.4077082872390747,
				-0.3487825393676758,
				-0.00035583972930908203
			],
			"type":"VEC3"
		},
		{
			"bufferView":7,
			"componentType":5126,
			"count":10157,
			"type":"VEC3"
		},
		{
			"bufferView":8,
			"componentType":5126,
			"count":10157,
			"type":"VEC2"
		},
		{
			"bufferView":9,
			"componentType":5123,
			"count":52533,
			"type":"SCALAR"
		}
	],
	"bufferViews":[
		{
			"buffer":0,
			"byteLength":517760,
			"byteOffset":0,
			"target":34962
		},
		{
			"buffer":0,
			"byteLength":388320,
			"byteOffset":517760,
			"target":34962
		},
		{
			"buffer":0,
			"byteLength":388320,
			"byteOffset":906080,
			"target":34962
		},
		{
			"buffer":0,
			"byteLength":258880,
			"byteOffset":1294400,
			"target":34962
		},
		{
			"buffer":0,
			"byteLength":95040,
			"byteOffset":1553280,
			"target":34963
		},
		{
			"buffer":0,
			"byteLength":162512,
			"byteOffset":1648320,
			"target":34962
		},
		{
			"buffer":0,
			"byteLength":121884,
			"byteOffset":1810832,
			"target":34962
		},
		{
			"buffer":0,
			"byteLength":121884,
			"byteOffset":1932716,
			"target":34962
		},
		{
			"buffer":0,
			"byteLength":81256,
			"byteOffset":2054600,
			"target":34962
		},
		{
			"buffer":0,
			"byteLength":105066,
			"byteOffset":2135856,
			"target":34963
		},
		{
			"buffer":0,
			"byteLength":769175,
			"byteOffset":2240924
		}
	],
	"samplers":[
		{
			"magFilter":9729,
			"minFilter":9987
		}
	],
	"buffers":[
		{
			"byteLength":3010100,
			"uri":"data:application/octet-stream;base64,"
		}
	]
}
