{
	"asset":{
		"generator":"Khronos glTF Blender I/O v3.6.27",
		"version":"2.0"
	},
	"scene":0,
	"scenes":[
		{
			"name":"Scene",
			"nodes":[
				0
			]
		}
	],
	"nodes":[
		{
			"mesh":0,
			"name":"bodyPart02"
		}
	],
	"materials":[
		{
			"doubleSided":true,
			"name":"Material",
			"pbrMetallicRoughness":{
				"baseColorFactor":[
					0.800000011920929,
					0.800000011920929,
					0.800000011920929,
					1
				],
				"metallicFactor":0,
				"roughnessFactor":0.5
			}
		},
		{
			"doubleSided":true,
			"name":"Material.002",
			"pbrMetallicRoughness":{
				"baseColorTexture":{
					"index":0
				},
				"metallicFactor":0,
				"roughnessFactor":0.5
			}
		}
	],
	"meshes":[
		{
			"name":"feather.002",
			"primitives":[
				{
					"attributes":{
						"COLOR_0":0,
						"POSITION":1,
						"NORMAL":2,
						"TEXCOORD_0":3
					},
					"indices":4,
					"material":0
				},
				{
					"attributes":{
						"COLOR_0":5,
						"POSITION":6,
						"NORMAL":7,
						"TEXCOORD_0":8
					},
					"indices":9,
					"material":1
				}
			]
		}
	],
	"textures":[
		{
			"sampler":0,
			"source":0
		}
	],
	"images":[
		{
			"bufferView":10,
			"mimeType":"image/png",
			"name":"Paint_Base Color"
		}
	],
	"accessors":[
		{
			"bufferView":0,
			"componentType":5126,
			"count":14782,
			"type":"VEC4"
		},
		{
			"bufferView":1,
			"componentType":5126,
			"count":14782,
			"max":[
				0.7553671598434448,
				0.9367251396179199,
				1.6160917282104492
			],
			"min":[
				-0.7757951021194458,
				-0.728119969367981,
				0.4150720238685608
			],
			"type":"VEC3"
		},
		{
			"bufferView":2,
			"componentType":5126,
			"count":14782,
			"type":"VEC3"
		},
		{
			"bufferView":3,
			"componentType":5126,
			"count":14782,
			"type":"VEC2"
		},
		{
			"bufferView":4,
			"componentType":5123,
			"count":82080,
			"type":"SCALAR"
		},
		{
			"bufferView":5,
			"componentType":5126,
			"count":10157,
			"type":"VEC4"
		},
		{
			"bufferView":6,
			"componentType":5126,
			"count":10157,
			"max":[
				0.4978320002555847,
				0.5679831504821777,
				0.7818205952644348
			],
			"min":[
				-0.4783012866973877,
				-0.6092260479927063,
				-0.007722006179392338
			],
			"type":"VEC3"
		},
		{
			"bufferView":7,
			"componentType":5126,
			"count":10157,
			"type":"VEC3"
		},
		{
			"bufferView":8,
			"componentType":5126,
			"count":10157,
			"type":"VEC2"
		},
		{
			"bufferView":9,
			"componentType":5123,
			"count":52533,
			"type":"SCALAR"
		}
	],
	"bufferViews":[
		{
			"buffer":0,
			"byteLength":236512,
			"byteOffset":0,
			"target":34962
		},
		{
			"buffer":0,
			"byteLength":177384,
			"byteOffset":236512,
			"target":34962
		},
		{
			"buffer":0,
			"byteLength":177384,
			"byteOffset":413896,
			"target":34962
		},
		{
			"buffer":0,
			"byteLength":118256,
			"byteOffset":591280,
			"target":34962
		},
		{
			"buffer":0,
			"byteLength":164160,
			"byteOffset":709536,
			"target":34963
		},
		{
			"buffer":0,
			"byteLength":162512,
			"byteOffset":873696,
			"target":34962
		},
		{
			"buffer":0,
			"byteLength":121884,
			"byteOffset":1036208,
			"target":34962
		},
		{
			"buffer":0,
			"byteLength":121884,
			"byteOffset":1158092,
			"target":34962
		},
		{
			"buffer":0,
			"byteLength":81256,
			"byteOffset":1279976,
			"target":34962
		},
		{
			"buffer":0,
			"byteLength":105066,
			"byteOffset":1361232,
			"target":34963
		},
		{
			"buffer":0,
			"byteLength":769175,
			"byteOffset":1466300
		}
	],
	"samplers":[
		{
			"magFilter":9729,
			"minFilter":9987
		}
	],
	"buffers":[
		{
			"byteLength":2235476,
			"uri":"data:application/octet-stream;base64,"
		}
	]
}
